<svg width="141" height="26" viewBox="0 0 141 26" fill="none" xmlns="http://www.w3.org/2000/svg">
<path d="M0.304 25H4.656V8.488L12.048 18.6H12.56L19.92 8.808V25H24.304V1.16H20.144L12.4 11.912L4.464 1.16H0.304V25ZM41.6105 25.384C43.3812 25.384 45.0238 25.0747 46.5385 24.456C48.0532 23.8373 49.3758 22.9733 50.5065 21.864C51.6372 20.7547 52.5118 19.4533 53.1305 17.96C53.7705 16.4453 54.0905 14.8133 54.0905 13.064C54.0905 11.2933 53.7705 9.66133 53.1305 8.168C52.5118 6.67467 51.6372 5.384 50.5065 4.296C49.3758 3.18667 48.0532 2.32266 46.5385 1.704C45.0238 1.08533 43.3812 0.775999 41.6105 0.775999C39.8398 0.775999 38.1972 1.08533 36.6825 1.704C35.1678 2.32266 33.8452 3.18667 32.7145 4.296C31.6052 5.384 30.7305 6.67467 30.0905 8.168C29.4718 9.66133 29.1625 11.2933 29.1625 13.064C29.1625 14.8133 29.4718 16.4453 30.0905 17.96C30.7305 19.4533 31.6158 20.7547 32.7465 21.864C33.8772 22.9733 35.1998 23.8373 36.7145 24.456C38.2292 25.0747 39.8612 25.384 41.6105 25.384ZM41.6105 21.416C40.0745 21.416 38.6878 21.0533 37.4505 20.328C36.2345 19.6027 35.2745 18.6107 34.5705 17.352C33.8665 16.0933 33.5145 14.664 33.5145 13.064C33.5145 11.464 33.8665 10.0453 34.5705 8.808C35.2745 7.54933 36.2345 6.55733 37.4505 5.832C38.6878 5.10667 40.0745 4.744 41.6105 4.744C43.1678 4.744 44.5545 5.10667 45.7705 5.832C46.9865 6.55733 47.9465 7.54933 48.6505 8.808C49.3545 10.0453 49.7065 11.464 49.7065 13.064C49.7065 14.664 49.3545 16.0933 48.6505 17.352C47.9465 18.6107 46.9865 19.6027 45.7705 20.328C44.5545 21.0533 43.1678 21.416 41.6105 21.416ZM58.9603 25H63.3123V16.2H67.4083L72.3363 25H77.2643L71.7923 15.432C73.1149 14.8773 74.1603 14.024 74.9283 12.872C75.7176 11.72 76.1123 10.3227 76.1123 8.68C76.1123 7.05867 75.7603 5.69333 75.0563 4.584C74.3523 3.47467 73.3709 2.632 72.1123 2.056C70.8749 1.45867 69.4456 1.16 67.8243 1.16H58.9603V25ZM63.3123 12.36V5H67.8883C69.0616 5 70.0003 5.33067 70.7043 5.992C71.4083 6.65333 71.7603 7.54933 71.7603 8.68C71.7603 9.78933 71.4083 10.6853 70.7043 11.368C70.0003 12.0293 69.0616 12.36 67.8883 12.36H63.3123ZM81.1165 25H96.9565V21.16H85.4685V14.952H96.3165V11.112H85.4685V5H96.9565V1.16H81.1165V25ZM101.148 25H105.5V9.416L116.828 25H120.252V1.16H115.9V16.456L104.54 1.16H101.148V25ZM130.091 25H134.475V5H140.555V1.16H123.915V5H130.091V25Z" fill="#3563E9"/>
</svg>
